solid model
  facet normal 0 0 -1
    outer loop
      vertex -20 -74.7946 0
      vertex -20 74.7946 0
      vertex 40 75 0
    endloop
  endfacet
  facet normal 0 0 -1
    outer loop
      vertex -20 -74.7946 0
      vertex 40 75 0
      vertex 40 -75 0
    endloop
  endfacet
  facet normal -0 0 1
    outer loop
      vertex -20 -74.7946 0.799999
      vertex 40 -75 0.799999
      vertex -20 74.7946 0.799999
    endloop
  endfacet
  facet normal 0 0 -1
    outer loop
      vertex -20 -75 0
      vertex -20 -74.7946 0
      vertex 40 -75 0
    endloop
  endfacet
  facet normal -1 0 0
    outer loop
      vertex -20 -75 0
      vertex -20 -74.7946 0.799999
      vertex -20 -74.7946 0
    endloop
  endfacet
  facet normal -1 -0 0
    outer loop
      vertex -20 -75 0
      vertex -20 -75 0.799999
      vertex -20 -74.7946 0.799999
    endloop
  endfacet
  facet normal 0 -1 -0
    outer loop
      vertex -20 -75 0
      vertex 40 -75 0
      vertex 40 -75 0.799999
    endloop
  endfacet
  facet normal 0 -1 0
    outer loop
      vertex -20 -75 0
      vertex 40 -75 0.799999
      vertex -20 -75 0.799999
    endloop
  endfacet
  facet normal 0 0 1
    outer loop
      vertex -20 -75 0.799999
      vertex 40 -75 0.799999
      vertex -20 -74.7946 0.799999
    endloop
  endfacet
  facet normal -1 -0 0
    outer loop
      vertex -20 74.7946 0
      vertex -20 74.7946 0.799999
      vertex -20 75 0.799999
    endloop
  endfacet
  facet normal -0 0 -1
    outer loop
      vertex -20 74.7946 0
      vertex -20 75 0
      vertex 40 75 0
    endloop
  endfacet
  facet normal -1 0 0
    outer loop
      vertex -20 74.7946 0
      vertex -20 75 0.799999
      vertex -20 75 0
    endloop
  endfacet
  facet normal 0 0 1
    outer loop
      vertex -20 74.7946 0.799999
      vertex 40 -75 0.799999
      vertex 40 75 0.799999
    endloop
  endfacet
  facet normal 0 0 1
    outer loop
      vertex -20 74.7946 0.799999
      vertex 40 75 0.799999
      vertex -20 75 0.799999
    endloop
  endfacet
  facet normal 0 1 0
    outer loop
      vertex -20 75 0
      vertex -20 75 0.799999
      vertex 40 75 0
    endloop
  endfacet
  facet normal 0 1 -0
    outer loop
      vertex -20 75 0.799999
      vertex 40 75 0.799999
      vertex 40 75 0
    endloop
  endfacet
  facet normal 0 -1 -0
    outer loop
      vertex -23.9198 -74.7946 0
      vertex -20 -74.7946 0
      vertex -20 -74.7946 0.799999
    endloop
  endfacet
  facet normal 0 -1 0
    outer loop
      vertex -23.9198 -74.7946 0
      vertex -20 -74.7946 0.799999
      vertex -23.9198 -74.7946 0.799999
    endloop
  endfacet
  facet normal 0 1 0
    outer loop
      vertex -23.9198 74.7946 0
      vertex -23.9198 74.7946 0.799999
      vertex -20 74.7946 0
    endloop
  endfacet
  facet normal 0 1 -0
    outer loop
      vertex -23.9198 74.7946 0.799999
      vertex -20 74.7946 0.799999
      vertex -20 74.7946 0
    endloop
  endfacet
  facet normal -0.207918 -0.978146 -0
    outer loop
      vertex -31.5881 -73.1646 0
      vertex -23.9198 -74.7946 0
      vertex -23.9198 -74.7946 0.799999
    endloop
  endfacet
  facet normal -0.207918 -0.978146 0
    outer loop
      vertex -31.5881 -73.1646 0
      vertex -23.9198 -74.7946 0.799999
      vertex -31.5881 -73.1646 0.799999
    endloop
  endfacet
  facet normal -0.207918 0.978146 0
    outer loop
      vertex -31.5881 73.1646 0
      vertex -31.5881 73.1646 0.799999
      vertex -23.9198 74.7946 0
    endloop
  endfacet
  facet normal -0.207918 0.978146 0
    outer loop
      vertex -31.5881 73.1646 0.799999
      vertex -23.9198 74.7946 0.799999
      vertex -23.9198 74.7946 0
    endloop
  endfacet
  facet normal 0 0 -1
    outer loop
      vertex -32.1 -24.3 0
      vertex -20 74.7946 0
      vertex -20 -74.7946 0
    endloop
  endfacet
  facet normal 0 0 -1
    outer loop
      vertex -32.1 -24.3 0
      vertex -32.1 24.3 0
      vertex -20 74.7946 0
    endloop
  endfacet
  facet normal -0 0 1
    outer loop
      vertex -32.1 -24.3 0.799999
      vertex -20 -74.7946 0.799999
      vertex -32.1 24.3 0.799999
    endloop
  endfacet
  facet normal 0 0 1
    outer loop
      vertex -32.1 24.3 0.799999
      vertex -20 -74.7946 0.799999
      vertex -20 74.7946 0.799999
    endloop
  endfacet
  facet normal -0.866019 -0.500011 0
    outer loop
      vertex -32.9 -22.9144 0
      vertex -32.1 -24.3 0
      vertex -32.9 -22.9144 0.799999
    endloop
  endfacet
  facet normal 0 0 -1
    outer loop
      vertex -32.9 -22.9144 0
      vertex -32.1 24.3 0
      vertex -32.1 -24.3 0
    endloop
  endfacet
  facet normal 0 0 -1
    outer loop
      vertex -32.9 -22.9144 0
      vertex -32.9 22.9144 0
      vertex -32.1 24.3 0
    endloop
  endfacet
  facet normal -0.866019 -0.500011 0
    outer loop
      vertex -32.9 -22.9144 0.799999
      vertex -32.1 -24.3 0
      vertex -32.1 -24.3 0.799999
    endloop
  endfacet
  facet normal 0 0 1
    outer loop
      vertex -32.9 -22.9144 0.799999
      vertex -32.1 -24.3 0.799999
      vertex -32.9 22.9144 0.799999
    endloop
  endfacet
  facet normal 0 0 -1
    outer loop
      vertex -32.9 -25.6856 0
      vertex -20 -74.7946 0
      vertex -23.9198 -74.7946 0
    endloop
  endfacet
  facet normal 0 0 -1
    outer loop
      vertex -32.9 -25.6856 0
      vertex -23.9198 -74.7946 0
      vertex -31.5881 -73.1646 0
    endloop
  endfacet
  facet normal 0 0 -1
    outer loop
      vertex -32.9 -25.6856 0
      vertex -32.1 -24.3 0
      vertex -20 -74.7946 0
    endloop
  endfacet
  facet normal -0.866019 0.500011 0
    outer loop
      vertex -32.9 -25.6856 0
      vertex -32.1 -24.3 0.799999
      vertex -32.1 -24.3 0
    endloop
  endfacet
  facet normal -0.866019 0.500011 0
    outer loop
      vertex -32.9 -25.6856 0
      vertex -32.9 -25.6856 0.799999
      vertex -32.1 -24.3 0.799999
    endloop
  endfacet
  facet normal -0 0 1
    outer loop
      vertex -32.9 -25.6856 0.799999
      vertex -20 -74.7946 0.799999
      vertex -32.1 -24.3 0.799999
    endloop
  endfacet
  facet normal 0 0 1
    outer loop
      vertex -32.9 -25.6856 0.799999
      vertex -23.9198 -74.7946 0.799999
      vertex -20 -74.7946 0.799999
    endloop
  endfacet
  facet normal 0 0 1
    outer loop
      vertex -32.9 -25.6856 0.799999
      vertex -31.5881 -73.1646 0.799999
      vertex -23.9198 -74.7946 0.799999
    endloop
  endfacet
  facet normal -0.866019 0.500011 0
    outer loop
      vertex -32.9 22.9144 0
      vertex -32.1 24.3 0.799999
      vertex -32.1 24.3 0
    endloop
  endfacet
  facet normal -0.866019 0.500011 0
    outer loop
      vertex -32.9 22.9144 0
      vertex -32.9 22.9144 0.799999
      vertex -32.1 24.3 0.799999
    endloop
  endfacet
  facet normal -0 0 1
    outer loop
      vertex -32.9 22.9144 0.799999
      vertex -32.1 -24.3 0.799999
      vertex -32.1 24.3 0.799999
    endloop
  endfacet
  facet normal 0 0 -1
    outer loop
      vertex -32.9 25.6856 0
      vertex -20 74.7946 0
      vertex -32.1 24.3 0
    endloop
  endfacet
  facet normal -0 0 -1
    outer loop
      vertex -32.9 25.6856 0
      vertex -23.9198 74.7946 0
      vertex -20 74.7946 0
    endloop
  endfacet
  facet normal 0 0 -1
    outer loop
      vertex -32.9 25.6856 0
      vertex -31.5881 73.1646 0
      vertex -23.9198 74.7946 0
    endloop
  endfacet
  facet normal -0.866019 -0.500011 0
    outer loop
      vertex -32.9 25.6856 0
      vertex -32.1 24.3 0
      vertex -32.9 25.6856 0.799999
    endloop
  endfacet
  facet normal 0 0 1
    outer loop
      vertex -32.9 25.6856 0.799999
      vertex -20 74.7946 0.799999
      vertex -23.9198 74.7946 0.799999
    endloop
  endfacet
  facet normal 0 0 1
    outer loop
      vertex -32.9 25.6856 0.799999
      vertex -23.9198 74.7946 0.799999
      vertex -31.5881 73.1646 0.799999
    endloop
  endfacet
  facet normal -0.866019 -0.500011 0
    outer loop
      vertex -32.9 25.6856 0.799999
      vertex -32.1 24.3 0
      vertex -32.1 24.3 0.799999
    endloop
  endfacet
  facet normal 0 0 1
    outer loop
      vertex -32.9 25.6856 0.799999
      vertex -32.1 24.3 0.799999
      vertex -20 74.7946 0.799999
    endloop
  endfacet
  facet normal 0 -1 -0
    outer loop
      vertex -34.5 -22.9144 0
      vertex -32.9 -22.9144 0
      vertex -32.9 -22.9144 0.799999
    endloop
  endfacet
  facet normal 0 -1 0
    outer loop
      vertex -34.5 -22.9144 0
      vertex -32.9 -22.9144 0.799999
      vertex -34.5 -22.9144 0.799999
    endloop
  endfacet
  facet normal 0 0 -1
    outer loop
      vertex -34.5 -22.9144 0
      vertex -32.9 22.9144 0
      vertex -32.9 -22.9144 0
    endloop
  endfacet
  facet normal 0 0 -1
    outer loop
      vertex -34.5 -22.9144 0
      vertex -34.5 22.9144 0
      vertex -32.9 22.9144 0
    endloop
  endfacet
  facet normal 0 0 1
    outer loop
      vertex -34.5 -22.9144 0.799999
      vertex -32.9 -22.9144 0.799999
      vertex -34.5 22.9144 0.799999
    endloop
  endfacet
  facet normal 0 1 0
    outer loop
      vertex -34.5 -25.6856 0
      vertex -34.5 -25.6856 0.799999
      vertex -32.9 -25.6856 0
    endloop
  endfacet
  facet normal 0 1 -0
    outer loop
      vertex -34.5 -25.6856 0.799999
      vertex -32.9 -25.6856 0.799999
      vertex -32.9 -25.6856 0
    endloop
  endfacet
  facet normal 0 1 0
    outer loop
      vertex -34.5 22.9144 0
      vertex -34.5 22.9144 0.799999
      vertex -32.9 22.9144 0
    endloop
  endfacet
  facet normal -0 0 1
    outer loop
      vertex -34.5 22.9144 0.799999
      vertex -32.9 -22.9144 0.799999
      vertex -32.9 22.9144 0.799999
    endloop
  endfacet
  facet normal 0 1 -0
    outer loop
      vertex -34.5 22.9144 0.799999
      vertex -32.9 22.9144 0.799999
      vertex -32.9 22.9144 0
    endloop
  endfacet
  facet normal 0 -1 -0
    outer loop
      vertex -34.5 25.6856 0
      vertex -32.9 25.6856 0
      vertex -32.9 25.6856 0.799999
    endloop
  endfacet
  facet normal 0 -1 0
    outer loop
      vertex -34.5 25.6856 0
      vertex -32.9 25.6856 0.799999
      vertex -34.5 25.6856 0.799999
    endloop
  endfacet
  facet normal 0.866019 -0.500011 0
    outer loop
      vertex -35.3 -24.3 0
      vertex -34.5 -22.9144 0
      vertex -35.3 -24.3 0.799999
    endloop
  endfacet
  facet normal 0.866019 0.500011 0
    outer loop
      vertex -35.3 -24.3 0
      vertex -34.5 -25.6856 0.799999
      vertex -34.5 -25.6856 0
    endloop
  endfacet
  facet normal 0.866019 0.500011 0
    outer loop
      vertex -35.3 -24.3 0
      vertex -35.3 -24.3 0.799999
      vertex -34.5 -25.6856 0.799999
    endloop
  endfacet
  facet normal 0.866019 -0.500011 0
    outer loop
      vertex -35.3 -24.3 0.799999
      vertex -34.5 -22.9144 0
      vertex -34.5 -22.9144 0.799999
    endloop
  endfacet
  facet normal 0.866019 0.500011 0
    outer loop
      vertex -35.3 24.3 0
      vertex -34.5 22.9144 0.799999
      vertex -34.5 22.9144 0
    endloop
  endfacet
  facet normal 0.866019 -0.500011 0
    outer loop
      vertex -35.3 24.3 0
      vertex -34.5 25.6856 0
      vertex -35.3 24.3 0.799999
    endloop
  endfacet
  facet normal 0.866019 0.500011 0
    outer loop
      vertex -35.3 24.3 0
      vertex -35.3 24.3 0.799999
      vertex -34.5 22.9144 0.799999
    endloop
  endfacet
  facet normal 0.866019 -0.500011 0
    outer loop
      vertex -35.3 24.3 0.799999
      vertex -34.5 25.6856 0
      vertex -34.5 25.6856 0.799999
    endloop
  endfacet
  facet normal -0.406728 -0.913549 -0
    outer loop
      vertex -38.75 -69.976 0
      vertex -31.5881 -73.1646 0
      vertex -31.5881 -73.1646 0.799999
    endloop
  endfacet
  facet normal -0.406728 -0.913549 0
    outer loop
      vertex -38.75 -69.976 0
      vertex -31.5881 -73.1646 0.799999
      vertex -38.75 -69.976 0.799999
    endloop
  endfacet
  facet normal 0 0 -1
    outer loop
      vertex -38.75 -69.976 0
      vertex -32.9 -25.6856 0
      vertex -31.5881 -73.1646 0
    endloop
  endfacet
  facet normal 0 0 1
    outer loop
      vertex -38.75 -69.976 0.799999
      vertex -31.5881 -73.1646 0.799999
      vertex -32.9 -25.6856 0.799999
    endloop
  endfacet
  facet normal 0 0 -1
    outer loop
      vertex -38.75 69.976 0
      vertex -31.5881 73.1646 0
      vertex -32.9 25.6856 0
    endloop
  endfacet
  facet normal -0.406728 0.913549 0
    outer loop
      vertex -38.75 69.976 0
      vertex -38.75 69.976 0.799999
      vertex -31.5881 73.1646 0
    endloop
  endfacet
  facet normal -0.406728 0.913549 0
    outer loop
      vertex -38.75 69.976 0.799999
      vertex -31.5881 73.1646 0.799999
      vertex -31.5881 73.1646 0
    endloop
  endfacet
  facet normal -0 0 1
    outer loop
      vertex -38.75 69.976 0.799999
      vertex -32.9 25.6856 0.799999
      vertex -31.5881 73.1646 0.799999
    endloop
  endfacet
  facet normal 0 0 -1
    outer loop
      vertex -45.0924 -65.3679 0
      vertex -32.9 -25.6856 0
      vertex -38.75 -69.976 0
    endloop
  endfacet
  facet normal -0.587792 -0.809012 -0
    outer loop
      vertex -45.0924 -65.3679 0
      vertex -38.75 -69.976 0
      vertex -38.75 -69.976 0.799999
    endloop
  endfacet
  facet normal -0.587792 -0.809012 0
    outer loop
      vertex -45.0924 -65.3679 0
      vertex -38.75 -69.976 0.799999
      vertex -45.0924 -65.3679 0.799999
    endloop
  endfacet
  facet normal 0 0 1
    outer loop
      vertex -45.0924 -65.3679 0.799999
      vertex -38.75 -69.976 0.799999
      vertex -32.9 -25.6856 0.799999
    endloop
  endfacet
  facet normal 0 0 -1
    outer loop
      vertex -45.0924 65.3679 0
      vertex -38.75 69.976 0
      vertex -32.9 25.6856 0
    endloop
  endfacet
  facet normal -0.587792 0.809012 0
    outer loop
      vertex -45.0924 65.3679 0
      vertex -45.0924 65.3679 0.799999
      vertex -38.75 69.976 0
    endloop
  endfacet
  facet normal -0 0 1
    outer loop
      vertex -45.0924 65.3679 0.799999
      vertex -32.9 25.6856 0.799999
      vertex -38.75 69.976 0.799999
    endloop
  endfacet
  facet normal -0.587792 0.809012 0
    outer loop
      vertex -45.0924 65.3679 0.799999
      vertex -38.75 69.976 0.799999
      vertex -38.75 69.976 0
    endloop
  endfacet
  facet normal 0 0 -1
    outer loop
      vertex -50.3381 -59.5419 0
      vertex -32.9 -25.6856 0
      vertex -45.0924 -65.3679 0
    endloop
  endfacet
  facet normal -0 0 -1
    outer loop
      vertex -50.3381 -59.5419 0
      vertex -34.5 -25.6856 0
      vertex -32.9 -25.6856 0
    endloop
  endfacet
  facet normal -0.743148 -0.669127 0
    outer loop
      vertex -50.3381 -59.5419 0
      vertex -45.0924 -65.3679 0
      vertex -50.3381 -59.5419 0.799999
    endloop
  endfacet
  facet normal 0 0 1
    outer loop
      vertex -50.3381 -59.5419 0.799999
      vertex -32.9 -25.6856 0.799999
      vertex -34.5 -25.6856 0.799999
    endloop
  endfacet
  facet normal -0.743148 -0.669127 0
    outer loop
      vertex -50.3381 -59.5419 0.799999
      vertex -45.0924 -65.3679 0
      vertex -45.0924 -65.3679 0.799999
    endloop
  endfacet
  facet normal 0 0 1
    outer loop
      vertex -50.3381 -59.5419 0.799999
      vertex -45.0924 -65.3679 0.799999
      vertex -32.9 -25.6856 0.799999
    endloop
  endfacet
  facet normal 0 0 -1
    outer loop
      vertex -50.3381 59.5419 0
      vertex -32.9 25.6856 0
      vertex -34.5 25.6856 0
    endloop
  endfacet
  facet normal 0 0 -1
    outer loop
      vertex -50.3381 59.5419 0
      vertex -45.0924 65.3679 0
      vertex -32.9 25.6856 0
    endloop
  endfacet
  facet normal -0.743148 0.669127 0
    outer loop
      vertex -50.3381 59.5419 0
      vertex -45.0924 65.3679 0.799999
      vertex -45.0924 65.3679 0
    endloop
  endfacet
  facet normal -0.743148 0.669127 0
    outer loop
      vertex -50.3381 59.5419 0
      vertex -50.3381 59.5419 0.799999
      vertex -45.0924 65.3679 0.799999
    endloop
  endfacet
  facet normal -0 0 1
    outer loop
      vertex -50.3381 59.5419 0.799999
      vertex -32.9 25.6856 0.799999
      vertex -45.0924 65.3679 0.799999
    endloop
  endfacet
  facet normal 0 0 1
    outer loop
      vertex -50.3381 59.5419 0.799999
      vertex -34.5 25.6856 0.799999
      vertex -32.9 25.6856 0.799999
    endloop
  endfacet
  facet normal 0 0 -1
    outer loop
      vertex -54.258 -52.7526 0
      vertex -34.5 -25.6856 0
      vertex -50.3381 -59.5419 0
    endloop
  endfacet
  facet normal -0.86602 -0.500009 0
    outer loop
      vertex -54.258 -52.7526 0
      vertex -50.3381 -59.5419 0
      vertex -54.258 -52.7526 0.799999
    endloop
  endfacet
  facet normal -0.86602 -0.500009 0
    outer loop
      vertex -54.258 -52.7526 0.799999
      vertex -50.3381 -59.5419 0
      vertex -50.3381 -59.5419 0.799999
    endloop
  endfacet
  facet normal 0 0 1
    outer loop
      vertex -54.258 -52.7526 0.799999
      vertex -50.3381 -59.5419 0.799999
      vertex -34.5 -25.6856 0.799999
    endloop
  endfacet
  facet normal 0 0 -1
    outer loop
      vertex -54.258 52.7526 0
      vertex -50.3381 59.5419 0
      vertex -34.5 25.6856 0
    endloop
  endfacet
  facet normal -0.86602 0.500009 0
    outer loop
      vertex -54.258 52.7526 0
      vertex -50.3381 59.5419 0.799999
      vertex -50.3381 59.5419 0
    endloop
  endfacet
  facet normal -0.86602 0.500009 0
    outer loop
      vertex -54.258 52.7526 0
      vertex -54.258 52.7526 0.799999
      vertex -50.3381 59.5419 0.799999
    endloop
  endfacet
  facet normal -0 0 1
    outer loop
      vertex -54.258 52.7526 0.799999
      vertex -34.5 25.6856 0.799999
      vertex -50.3381 59.5419 0.799999
    endloop
  endfacet
  facet normal 0 0 -1
    outer loop
      vertex -56.6805 -45.2967 0
      vertex -34.5 -25.6856 0
      vertex -54.258 -52.7526 0
    endloop
  endfacet
  facet normal -0.951059 -0.309009 0
    outer loop
      vertex -56.6805 -45.2967 0
      vertex -54.258 -52.7526 0
      vertex -56.6805 -45.2967 0.799999
    endloop
  endfacet
  facet normal -0.951059 -0.309009 0
    outer loop
      vertex -56.6805 -45.2967 0.799999
      vertex -54.258 -52.7526 0
      vertex -54.258 -52.7526 0.799999
    endloop
  endfacet
  facet normal 0 0 1
    outer loop
      vertex -56.6805 -45.2967 0.799999
      vertex -54.258 -52.7526 0.799999
      vertex -34.5 -25.6856 0.799999
    endloop
  endfacet
  facet normal 0 0 -1
    outer loop
      vertex -56.6805 45.2967 0
      vertex -54.258 52.7526 0
      vertex -34.5 25.6856 0
    endloop
  endfacet
  facet normal -0.951059 0.309009 0
    outer loop
      vertex -56.6805 45.2967 0
      vertex -54.258 52.7526 0.799999
      vertex -54.258 52.7526 0
    endloop
  endfacet
  facet normal -0.951059 0.309009 0
    outer loop
      vertex -56.6805 45.2967 0
      vertex -56.6805 45.2967 0.799999
      vertex -54.258 52.7526 0.799999
    endloop
  endfacet
  facet normal -0 0 1
    outer loop
      vertex -56.6805 45.2967 0.799999
      vertex -34.5 25.6856 0.799999
      vertex -54.258 52.7526 0.799999
    endloop
  endfacet
  facet normal 0 0 -1
    outer loop
      vertex -57.5 -37.5 0
      vertex -34.5 -22.9144 0
      vertex -35.3 -24.3 0
    endloop
  endfacet
  facet normal 0 0 -1
    outer loop
      vertex -57.5 -37.5 0
      vertex -34.5 -25.6856 0
      vertex -56.6805 -45.2967 0
    endloop
  endfacet
  facet normal -0 0 -1
    outer loop
      vertex -57.5 -37.5 0
      vertex -34.5 22.9144 0
      vertex -34.5 -22.9144 0
    endloop
  endfacet
  facet normal -0 0 -1
    outer loop
      vertex -57.5 -37.5 0
      vertex -35.3 -24.3 0
      vertex -34.5 -25.6856 0
    endloop
  endfacet
  facet normal -0.994521 -0.104533 0
    outer loop
      vertex -57.5 -37.5 0
      vertex -56.6805 -45.2967 0
      vertex -57.5 -37.5 0.799999
    endloop
  endfacet
  facet normal -1 -0 0
    outer loop
      vertex -57.5 -37.5 0
      vertex -57.5 -37.5 0.799999
      vertex -57.5 37.5 0.799999
    endloop
  endfacet
  facet normal 0 0 -1
    outer loop
      vertex -57.5 -37.5 0
      vertex -57.5 37.5 0
      vertex -34.5 22.9144 0
    endloop
  endfacet
  facet normal -1 0 0
    outer loop
      vertex -57.5 -37.5 0
      vertex -57.5 37.5 0.799999
      vertex -57.5 37.5 0
    endloop
  endfacet
  facet normal 0 0 1
    outer loop
      vertex -57.5 -37.5 0.799999
      vertex -34.5 -22.9144 0.799999
      vertex -57.5 37.5 0.799999
    endloop
  endfacet
  facet normal 0 0 1
    outer loop
      vertex -57.5 -37.5 0.799999
      vertex -34.5 -25.6856 0.799999
      vertex -35.3 -24.3 0.799999
    endloop
  endfacet
  facet normal 0 0 1
    outer loop
      vertex -57.5 -37.5 0.799999
      vertex -35.3 -24.3 0.799999
      vertex -34.5 -22.9144 0.799999
    endloop
  endfacet
  facet normal -0.994521 -0.104533 0
    outer loop
      vertex -57.5 -37.5 0.799999
      vertex -56.6805 -45.2967 0
      vertex -56.6805 -45.2967 0.799999
    endloop
  endfacet
  facet normal 0 0 1
    outer loop
      vertex -57.5 -37.5 0.799999
      vertex -56.6805 -45.2967 0.799999
      vertex -34.5 -25.6856 0.799999
    endloop
  endfacet
  facet normal 0 0 -1
    outer loop
      vertex -57.5 37.5 0
      vertex -34.5 25.6856 0
      vertex -35.3 24.3 0
    endloop
  endfacet
  facet normal 0 0 -1
    outer loop
      vertex -57.5 37.5 0
      vertex -35.3 24.3 0
      vertex -34.5 22.9144 0
    endloop
  endfacet
  facet normal 0 0 -1
    outer loop
      vertex -57.5 37.5 0
      vertex -56.6805 45.2967 0
      vertex -34.5 25.6856 0
    endloop
  endfacet
  facet normal -0.994521 0.104533 0
    outer loop
      vertex -57.5 37.5 0
      vertex -56.6805 45.2967 0.799999
      vertex -56.6805 45.2967 0
    endloop
  endfacet
  facet normal -0.994521 0.104533 0
    outer loop
      vertex -57.5 37.5 0
      vertex -57.5 37.5 0.799999
      vertex -56.6805 45.2967 0.799999
    endloop
  endfacet
  facet normal 0 0 1
    outer loop
      vertex -57.5 37.5 0.799999
      vertex -34.5 -22.9144 0.799999
      vertex -34.5 22.9144 0.799999
    endloop
  endfacet
  facet normal 0 0 1
    outer loop
      vertex -57.5 37.5 0.799999
      vertex -34.5 22.9144 0.799999
      vertex -35.3 24.3 0.799999
    endloop
  endfacet
  facet normal -0 0 1
    outer loop
      vertex -57.5 37.5 0.799999
      vertex -34.5 25.6856 0.799999
      vertex -56.6805 45.2967 0.799999
    endloop
  endfacet
  facet normal 0 0 1
    outer loop
      vertex -57.5 37.5 0.799999
      vertex -35.3 24.3 0.799999
      vertex -34.5 25.6856 0.799999
    endloop
  endfacet
  facet normal 1 0 0
    outer loop
      vertex 40 -75 0
      vertex 40 75 0
      vertex 40 -75 0.799999
    endloop
  endfacet
  facet normal 1 -0 0
    outer loop
      vertex 40 -75 0.799999
      vertex 40 75 0
      vertex 40 75 0.799999
    endloop
  endfacet
endsolid model
